<svg width="200" height="200" viewBox="0 0 200 200" fill="none" xmlns="http://www.w3.org/2000/svg">
<rect x="2" y="2" width="196" height="196" rx="28" stroke="#0050AE" stroke-width="4"/>
<path d="M35.1248 119.776L43.8321 84.7313H32.4373L34.1573 75.4864C41.1447 74.1965 45.8746 72.369 50.927 69.7891L62.2143 70.1115L49.852 119.776H60.9243L57.9144 131.708H19L22.0099 119.776H35.1248Z" fill="#0050AE"/>
<path d="M103.173 87.7419C104.463 82.9044 102.42 80.432 98.1201 80.432C93.2827 80.432 88.9828 83.7645 85.4353 86.8819L78.7704 77.9596C86.4028 71.6172 92.5302 68.9297 100.7 68.9297C113.17 68.9297 119.942 77.207 116.825 89.6768C114.352 99.5666 102.85 111.069 90.4878 120.529C93.2827 119.561 97.5827 119.239 100.378 119.239H112.31L109.192 131.709H66.5156L68.2356 122.786C87.1553 108.812 100.808 97.4167 103.173 87.7419Z" fill="#0050AE"/>
<path d="M131.012 70.0078H147.029L148.964 81.7251C149.502 84.6275 150.254 87.8525 150.899 91.8299L151.652 90.5399C154.017 86.5625 156.167 83.3375 157.994 80.4351L165.304 70.1153H181.321L157.564 100.645L166.594 131.712H150.577L148.104 119.134C147.352 115.909 146.814 112.577 146.169 108.815L145.417 110.105C143.052 113.867 140.902 117.092 138.859 120.317L130.474 131.712H114.242L139.289 99.9997L131.012 70.1153V70.0078Z" fill="#0050AE"/>
</svg>
