<svg width="200" height="200" viewBox="0 0 200 200" fill="none" xmlns="http://www.w3.org/2000/svg">
<rect x="2" y="2" width="196" height="196" rx="28" stroke="#0050AE" stroke-width="4"/>
<path d="M19 123.058L27.184 114.874C29.9838 118.427 33.5374 120.258 37.7371 120.258C43.8752 120.258 48.9363 117.243 50.2286 111.966C51.4131 107.443 49.7978 105.074 37.091 105.074L38.4909 94.8443C48.8287 94.8443 53.6745 90.9676 54.9667 85.4757C55.8282 82.0298 54.4283 80.4145 50.4439 80.4145C45.8135 80.4145 41.9368 82.7836 37.7371 85.9065L31.8145 76.1071C38.5986 71.369 45.0597 69 51.7362 69C64.8737 69 71.9809 75.5688 69.0734 87.091C67.7812 92.3675 63.9045 96.6749 57.0127 99.2593L55.6128 99.5824C61.8585 101.628 66.0582 107.013 63.9045 115.52C61.3201 126.073 50.0132 131.78 38.5986 131.78C28.3686 131.78 22.4459 127.903 19.1077 122.842L19 123.058Z" fill="#0050AE"/>
<path d="M104.073 87.6311C105.257 82.7853 103.319 80.4162 99.1192 80.4162C94.3811 80.4162 90.0737 83.6468 86.6278 86.7696L80.059 77.9395C87.5969 71.6938 93.6273 69.1094 101.596 69.1094C113.872 69.1094 120.548 77.2933 117.426 89.5694C114.949 99.261 103.642 110.568 91.4736 119.829C94.2734 118.967 98.4731 118.644 101.165 118.644H112.903L109.888 130.813H67.8906L69.6136 121.982C88.1354 108.199 101.596 97.1073 103.965 87.5234L104.073 87.6311Z" fill="#0050AE"/>
<path d="M131.419 70.1875H147.249L149.187 81.7097C149.726 84.5095 150.372 87.74 151.018 91.6167L151.772 90.3245C154.141 86.4479 156.295 83.2173 157.91 80.4175L165.125 70.1875H180.954L157.587 100.231L166.417 130.814H150.587L148.111 118.43C147.357 115.307 146.818 111.969 146.172 108.2L145.418 109.492C143.049 113.261 140.896 116.384 138.957 119.615L130.773 130.814H114.836L139.496 99.5853L131.312 70.1875H131.419Z" fill="#0050AE"/>
</svg>
