<svg width="161" height="153" viewBox="0 0 161 153" fill="none" xmlns="http://www.w3.org/2000/svg">
<path d="M2.62737 81.8796C2.976 81.6888 2.7066 81.3391 2.81753 81.0848C3.81587 78.8754 4.48143 76.5547 5.43223 74.3135C6.52564 71.7544 7.82507 69.3225 9.07695 66.8587C11.0261 63.0121 13.4031 59.4199 15.9544 55.9865C17.856 53.4274 20.0428 51.1068 22.0395 48.6112C23.4657 46.8469 25.2088 45.4004 26.6826 43.6997C26.9995 43.3818 27.3323 43.0639 27.6492 42.7301C31.9119 38.9947 36.2381 35.3548 40.9128 32.1281C41.2139 31.9373 41.4992 31.7148 41.8002 31.54C43.0204 30.8724 43.9871 29.7915 45.3816 29.41C41.6259 32.0009 37.9654 34.7349 34.5108 37.7072C31.2939 40.473 28.2672 43.4612 25.399 46.6244C21.7226 50.6776 18.4898 55.0328 15.5899 59.6583C13.2129 63.4572 11.2321 67.431 9.47311 71.5478C7.82507 75.4262 6.65242 79.4476 5.93932 83.5803C5.87593 83.93 5.60654 84.232 5.78085 84.6135C5.5273 85.1857 5.41638 85.7739 5.40053 86.3938C5.21037 88.0468 5.00437 89.684 4.81421 91.3371C4.81421 91.9252 4.81421 92.5293 4.81421 93.1174C4.52897 96.8845 5.09945 100.604 5.82839 104.26C7.03273 110.284 9.5682 115.768 13.1337 120.759C15.9702 124.749 19.5833 127.959 23.5925 130.709C27.9027 133.666 32.5775 135.891 37.585 137.433C40.9445 138.466 44.3832 139.134 47.8695 139.642C48.7569 139.769 49.6919 139.594 50.5476 139.96C51.1339 139.96 51.7361 139.96 52.3224 139.96C55.2382 140.31 58.154 140.199 61.1014 140.04C63.7954 139.896 66.4418 139.658 69.104 139.245C72.5269 138.72 75.8863 137.941 79.1666 136.845C80.6879 136.368 82.2408 135.986 83.7146 135.414C86.5828 134.286 89.562 133.411 92.1767 131.711C92.6521 131.647 93.0641 131.44 93.492 131.218C97.4061 129.183 101.162 126.91 104.759 124.367C108.594 121.665 112.159 118.629 115.55 115.402C118.26 112.827 120.764 110.03 122.951 106.978C123.41 106.565 123.791 106.088 124.076 105.547C125.391 104.133 126.39 102.464 127.42 100.842C130.367 96.2169 132.871 91.3689 134.44 86.0759C134.63 85.3924 135.01 84.7566 134.994 84.0095C135.28 83.8029 135.311 83.485 135.375 83.1671C135.866 81.1166 136.246 79.0502 136.642 76.968C137.054 74.8222 137.197 72.6604 137.308 70.5146C137.435 67.733 137.038 64.9831 136.595 62.2174C136.104 59.2132 135.295 56.3362 134.202 53.5069C134.059 52.4101 133.536 51.4723 132.998 50.5504C132.126 48.7384 130.922 47.1489 129.812 45.4799C127.15 41.4267 123.775 38.0728 119.845 35.2753C118.973 34.6077 118.086 33.956 117.072 33.5109C115.218 32.2234 113.094 31.4605 111.098 30.475C110.527 30.1889 110.068 30.3955 109.719 30.8724C109.117 31.6671 108.546 32.4778 107.944 33.2566C105.345 36.6423 102.746 40.0279 100.163 43.4136C99.9257 43.7315 99.6563 44.2083 99.3552 44.1765C98.9432 44.1288 98.8323 43.5884 98.6896 43.191C97.4536 39.567 95.6788 36.1654 94.2367 32.6208C93.0641 29.7438 91.7805 26.9145 90.5603 24.0534C89.2767 21.081 88.0249 18.1086 86.7254 15.1522C86.2817 14.119 86.2817 14.0395 87.4068 13.9282C88.5003 13.4673 89.7363 13.4514 90.7663 12.7997C92.6838 12.4023 94.522 11.7665 96.3919 11.2102C100.892 9.82732 105.409 8.44445 109.909 7.07748C113.918 5.88535 117.927 4.67733 121.937 3.4852C124.963 2.57918 127.99 1.65727 131.017 0.751249C131.492 0.719459 131.904 0.496928 132.348 0.353872C132.744 0.226712 133.109 -0.218349 133.584 0.131342C132.744 1.21221 131.92 2.29307 131.064 3.35804C129.21 5.67871 127.388 8.03118 125.629 10.4313C124.472 12.0367 123.268 13.5944 121.937 15.0727C121.35 15.7085 121.398 16.1377 122.19 16.2966C124.948 16.8529 127.42 18.2199 130.082 19.0782C130.779 19.3643 131.476 19.6664 132.174 19.9525C133.996 21.0015 135.866 21.9711 137.625 23.1315C140.398 24.9594 143.029 26.9781 145.437 29.3146C148.369 32.144 151.079 35.0845 153.234 38.5656C156.165 43.3182 158.479 48.3092 159.604 53.8089C159.652 54.0632 159.763 54.3017 159.842 54.5401C159.921 55.4779 160.111 56.4157 160.349 57.3217C160.555 58.9907 160.904 60.6438 160.951 62.3287C161.11 67.5104 160.919 72.6604 159.842 77.7786C158.717 83.0876 157.132 88.2376 154.929 93.1968C152.679 98.2515 149.922 103.02 146.673 107.518C143.932 111.317 141.079 115.037 137.815 118.422C135.248 121.093 132.522 123.588 129.733 126.02C126.168 129.12 122.38 131.949 118.482 134.603C114.726 137.163 110.717 139.261 106.708 141.391C106.106 141.597 105.488 141.772 105.123 142.376C104.648 142.392 104.204 142.471 103.745 142.694C102.699 143.219 101.637 143.68 100.591 144.172C99.4978 144.554 98.4361 144.983 97.4219 145.523C95.14 146.334 92.8739 147.272 90.5445 147.908C86.044 149.132 81.5753 150.498 76.9639 151.341C73.6044 151.961 70.2132 152.295 66.8379 152.422C61.2124 152.628 55.5551 152.724 49.9771 151.691C47.9646 151.325 45.9204 151.15 43.9554 150.546C42.1489 149.99 40.3107 149.592 38.4725 149.132C37.7118 148.559 36.761 148.559 35.9053 148.321C34.0195 147.415 32.007 146.763 30.1054 145.873C26.6192 144.236 23.2597 142.392 20.1221 140.135C17.8243 138.482 15.5741 136.765 13.6091 134.746C10.7092 131.726 8.23708 128.357 6.28794 124.637C6.22456 124.526 6.14532 124.415 6.08194 124.319C5.70162 123.684 5.3213 123.064 4.95683 122.428C4.22788 120.648 3.51478 118.867 2.78584 117.087C2.7383 116.61 2.59568 116.149 2.38967 115.704C1.72411 113.495 1.18533 111.254 0.757469 108.981C0.503923 107.868 0.583156 106.692 0.171144 105.611C-0.0665559 102.607 0.0126773 99.5866 0.0126773 96.5666C0.0126773 94.8817 0.42469 93.2286 0.567309 91.5597C0.773316 89.08 1.53395 86.7117 1.97766 84.2956C2.13613 83.485 2.53229 82.722 2.57983 81.8796H2.62737Z" fill="#CF6500"/>
<g clip-path="url(#clip0_17831_21145)">
<path d="M26.3319 97.1758L31.3868 76.6134H24.8074L25.8104 71.1787C29.8623 70.4487 32.6304 69.3942 35.5189 67.8125L42.0582 68.0153L34.877 97.2163H41.3361L39.611 104.233H16.9844L18.7095 97.2163H26.3319V97.1758Z" fill="#CF6500"/>
<path d="M47.2713 98.6361C47.9132 96.1216 50.1598 94.0938 52.8076 94.0938C56.0972 94.0938 57.9026 96.8516 57.1002 100.258C56.4182 102.854 54.1315 104.841 51.5238 104.841C48.194 104.841 46.4288 102.083 47.2713 98.5956V98.6361Z" fill="#CF6500"/>
<path d="M72.5506 97.1758L77.6055 76.6134H71.0262L72.0291 71.1787C76.081 70.4487 78.8492 69.3942 81.7377 67.8125L88.2769 68.0153L81.0958 97.2163H87.5548L85.8297 104.233H63.2031L64.9282 97.2163H72.5506V97.1758Z" fill="#CF6500"/>
<path d="M90.8381 100.746L95.4516 95.8384C97.4575 97.7851 99.5036 98.5151 101.309 98.5151C103.917 98.5151 105.481 97.2984 105.922 95.5139C106.243 94.2972 104.037 93.7294 101.83 92.4316C98.5407 91.296 95.0103 88.822 96.254 83.8335C97.4575 79.0072 102.111 75.8438 108.129 75.8438C112.783 75.8438 115.43 77.831 117.557 79.6561L112.943 84.3202C111.338 82.9412 109.653 82.2112 108.169 82.2112C105.922 82.2112 104.358 83.2657 103.917 85.0502C103.636 86.2669 105.682 86.6725 107.968 87.8081C111.379 88.9842 114.949 91.2149 113.585 96.6495C112.422 101.314 107.968 104.883 100.827 104.883C96.936 104.883 93.0847 103.098 90.7578 100.746H90.8381Z" fill="#CF6500"/>
</g>
<defs>
<clipPath id="clip0_17831_21145">
<rect width="100.616" height="37.0691" fill="white" transform="translate(16.9844 67.8125)"/>
</clipPath>
</defs>
</svg>
