<svg width="100" height="100" viewBox="0 0 100 100" fill="none" xmlns="http://www.w3.org/2000/svg">
<path d="M80.6625 20.5H18.675C15.3 20.5 12.5625 23.2375 12.5625 26.6125V74.65C12.5625 78.025 15.3 80.7625 18.675 80.7625H80.6625C84.0375 80.7625 86.775 78.025 86.775 74.65V26.6125C86.775 23.2375 84.0375 20.5 80.6625 20.5ZM18.675 25H80.6625C81.5625 25 82.275 25.7125 82.275 26.6125V58.6375L67.875 45.85C67.0875 45.1375 65.8875 45.1 65.025 45.7375L47.1375 59.1625L37.65 52.4125C36.9 51.85 35.85 51.85 35.0625 52.4125L17.0625 65.1625V26.6125C17.0625 25.7125 17.775 25 18.675 25ZM80.6625 76.2625H18.675C17.775 76.2625 17.0625 75.55 17.0625 74.65V70.675L36.375 57.025L54.525 69.9625C55.5375 70.675 56.9625 70.45 57.675 69.4375C58.3875 68.425 58.1625 67 57.15 66.2875L50.9625 61.9L66.2625 50.425L81.75 64.1875C81.9 64.3375 82.0875 64.4125 82.275 64.525V74.65C82.275 75.55 81.5625 76.2625 80.6625 76.2625Z" fill="#01F3F3"/>
<path d="M34.875 47.5C40.05 47.5 44.25 43.3 44.25 38.125C44.25 32.95 40.05 28.75 34.875 28.75C29.7 28.75 25.5 32.95 25.5 38.125C25.5 43.3 29.7 47.5 34.875 47.5ZM34.875 33.25C37.575 33.25 39.75 35.425 39.75 38.125C39.75 40.825 37.575 43 34.875 43C32.175 43 30 40.825 30 38.125C30 35.425 32.175 33.25 34.875 33.25Z" fill="#01F3F3"/>
</svg>
