<svg width="100" height="100" viewBox="0 0 100 100" fill="none" xmlns="http://www.w3.org/2000/svg">
<g clip-path="url(#clip0_17831_21019)">
<path d="M42.3885 49.5773C36.1619 53.1601 31.8076 61.2914 31.8076 70.7338C31.8076 71.3062 32.0349 71.8552 32.4397 72.2599C32.8445 72.6647 33.3934 72.8921 33.9658 72.8921H65.0342C65.6066 72.8921 66.1555 72.6647 66.5603 72.2599C66.9651 71.8552 67.1924 71.3062 67.1924 70.7338C67.1924 61.2914 62.8381 53.1601 56.6115 49.5773C58.6208 48.0824 60.1079 45.9923 60.8615 43.604C61.6151 41.2157 61.5969 38.6507 60.8095 36.2733C60.0221 33.8959 58.5056 31.8271 56.4753 30.3608C54.4451 28.8945 52.0044 28.1053 49.5 28.1053C46.9956 28.1053 44.5549 28.8945 42.5247 30.3608C40.4944 31.8271 38.9779 33.8959 38.1905 36.2733C37.4031 38.6507 37.3849 41.2157 38.1385 43.604C38.8921 45.9923 40.3792 48.0824 42.3885 49.5773ZM14.1583 36.4712C14.7307 36.4712 15.2796 36.2438 15.6844 35.8391C16.0892 35.4343 16.3165 34.8854 16.3165 34.3129V19.4748C16.3165 18.9024 16.5439 18.3534 16.9487 17.9487C17.3534 17.5439 17.9024 17.3165 18.4748 17.3165H33.3129C33.8854 17.3165 34.4343 17.0892 34.8391 16.6844C35.2438 16.2796 35.4712 15.7307 35.4712 15.1583C35.4712 14.5859 35.2438 14.0369 34.8391 13.6321C34.4343 13.2274 33.8854 13 33.3129 13L18.4748 13C16.7576 13 15.1107 13.6822 13.8964 14.8964C12.6822 16.1107 12 17.7576 12 19.4748L12 34.3129C12 34.8854 12.2274 35.4343 12.6321 35.8391C13.0369 36.2438 13.5859 36.4712 14.1583 36.4712ZM80.5252 13H65.687C65.1146 13 64.5657 13.2274 64.1609 13.6321C63.7562 14.0369 63.5288 14.5859 63.5288 15.1583C63.5288 15.7307 63.7562 16.2796 64.1609 16.6844C64.5657 17.0892 65.1146 17.3165 65.687 17.3165H80.5252C81.0976 17.3165 81.6466 17.5439 82.0513 17.9487C82.4561 18.3534 82.6835 18.9024 82.6835 19.4748V34.3129C82.6835 34.8854 82.9108 35.4343 83.3156 35.8391C83.7204 36.2438 84.2693 36.4712 84.8417 36.4712C85.4141 36.4712 85.9631 36.2438 86.3679 35.8391C86.7726 35.4343 87 34.8854 87 34.3129V19.4748C87 17.7576 86.3178 16.1107 85.1036 14.8964C83.8893 13.6822 82.2424 13 80.5252 13ZM84.8417 64.5288C84.2693 64.5288 83.7204 64.7562 83.3156 65.1609C82.9108 65.5657 82.6835 66.1146 82.6835 66.687V81.5252C82.6835 82.0976 82.4561 82.6466 82.0513 83.0513C81.6466 83.4561 81.0976 83.6835 80.5252 83.6835H65.687C65.1146 83.6835 64.5657 83.9108 64.1609 84.3156C63.7562 84.7204 63.5288 85.2693 63.5288 85.8417C63.5288 86.4141 63.7562 86.9631 64.1609 87.3679C64.5657 87.7726 65.1146 88 65.687 88H80.5252C82.2424 88 83.8893 87.3178 85.1036 86.1036C86.3178 84.8893 87 83.2424 87 81.5252V66.687C87 66.1146 86.7726 65.5657 86.3679 65.1609C85.9631 64.7562 85.4141 64.5288 84.8417 64.5288ZM33.3129 83.6835H18.4748C17.9024 83.6835 17.3534 83.4561 16.9487 83.0513C16.5439 82.6466 16.3165 82.0976 16.3165 81.5252V66.687C16.3165 66.1146 16.0892 65.5657 15.6844 65.1609C15.2796 64.7562 14.7307 64.5288 14.1583 64.5288C13.5859 64.5288 13.0369 64.7562 12.6321 65.1609C12.2274 65.5657 12 66.1146 12 66.687V81.5252C12 83.2424 12.6822 84.8893 13.8964 86.1036C14.4977 86.7048 15.2115 87.1817 15.997 87.5071C16.7826 87.8325 17.6245 88 18.4748 88H33.3129C33.8854 88 34.4343 87.7726 34.8391 87.3679C35.2438 86.9631 35.4712 86.4141 35.4712 85.8417C35.4712 85.2693 35.2438 84.7204 34.8391 84.3156C34.4343 83.9108 33.8854 83.6835 33.3129 83.6835Z" fill="#01F3F3"/>
</g>
<defs>
<clipPath id="clip0_17831_21019">
<rect width="75" height="75" fill="white" transform="translate(12 13)"/>
</clipPath>
</defs>
</svg>
