<svg width="101" height="100" viewBox="0 0 101 100" fill="none" xmlns="http://www.w3.org/2000/svg">
<path fill-rule="evenodd" clip-rule="evenodd" d="M65.5208 11.6693H18.8542C17.9701 11.6693 17.1223 12.0205 16.4971 12.6456C15.872 13.2707 15.5208 14.1185 15.5208 15.0026V85.0026C15.5208 85.8867 15.872 86.7345 16.4971 87.3596C17.1223 87.9847 17.9701 88.3359 18.8542 88.3359H81.3542C82.2382 88.3359 83.0861 87.9847 83.7112 87.3596C84.3363 86.7345 84.6875 85.8867 84.6875 85.0026V30.8359H70.5208C69.1948 30.8359 67.923 30.3092 66.9853 29.3715C66.0476 28.4338 65.5208 27.162 65.5208 25.8359V11.6693ZM88.0208 29.1693V85.0026C88.0208 86.7707 87.3185 88.4664 86.0682 89.7166C84.818 90.9669 83.1223 91.6693 81.3542 91.6693H18.8542C17.0861 91.6693 15.3904 90.9669 14.1401 89.7166C12.8899 88.4664 12.1875 86.7707 12.1875 85.0026V15.0026C12.1875 13.2345 12.8899 11.5388 14.1401 10.2886C15.3904 9.03832 17.0861 8.33594 18.8542 8.33594H67.1875L88.0208 29.1693ZM68.8542 14.7159L81.6408 27.5026H70.5208C70.0788 27.5026 69.6549 27.327 69.3423 27.0144C69.0298 26.7019 68.8542 26.278 68.8542 25.8359V14.7159Z" fill="#01F3F3"/>
<path d="M22.1797 20H28.8464V26.6667H22.1797V20ZM22.1797 33.3333H28.8464V40H22.1797V33.3333ZM22.1797 46.6667H28.8464V53.3333H22.1797V46.6667ZM22.1797 60H28.8464V66.6667H22.1797V60ZM22.1797 73.3333H28.8464V80H22.1797V73.3333ZM72.1797 46.6667H78.8463V53.3333H72.1797V46.6667ZM72.1797 60H78.8463V66.6667H72.1797V60ZM72.1797 73.3333H78.8463V80H72.1797V73.3333ZM40.513 61.085V39.65C40.5129 39.3535 40.592 39.0622 40.742 38.8064C40.892 38.5506 41.1075 38.3395 41.3664 38.1948C41.6252 38.0501 41.918 37.977 42.2145 37.9832C42.511 37.9894 42.8004 38.0746 43.053 38.23L59.943 48.6233C60.1823 48.7705 60.3804 48.9757 60.5191 49.2199C60.6578 49.4641 60.7326 49.7395 60.7364 50.0203C60.7402 50.3011 60.673 50.5784 60.541 50.8263C60.409 51.0742 60.2165 51.2847 59.9813 51.4383L43.0914 62.48C42.8399 62.6443 42.5488 62.7376 42.2487 62.75C41.9486 62.7625 41.6507 62.6936 41.3866 62.5506C41.1224 62.4077 40.9018 62.1961 40.748 61.9381C40.5943 61.6801 40.5131 61.3853 40.513 61.085Z" fill="#01F3F3"/>
</svg>
