<svg width="100" height="100" viewBox="0 0 100 100" fill="none" xmlns="http://www.w3.org/2000/svg">
<path fill-rule="evenodd" clip-rule="evenodd" d="M11.6797 27.7043C11.6795 25.8011 12.0541 23.9164 12.7823 22.158C13.5105 20.3996 14.5779 18.8019 15.9236 17.456C17.2693 16.1102 18.8669 15.0426 20.6252 14.3142C22.3836 13.5858 24.2681 13.2109 26.1714 13.2109V16.4109C23.1765 16.4114 20.3044 17.6014 18.1868 19.7193C16.0693 21.8371 14.8797 24.7094 14.8797 27.7043V71.6709C14.8801 74.6655 16.0699 77.5374 18.1874 79.6549C20.3049 81.7724 23.1768 82.9622 26.1714 82.9626V86.1626C22.3281 86.1622 18.6423 84.6352 15.9247 81.9176C13.2071 79.2 11.6801 75.5142 11.6797 71.6709V27.7043Z" fill="#01F3F3"/>
<path d="M31.7815 15.2892C31.7815 16.6919 31.2242 18.0373 30.2323 19.0292C29.2404 20.0211 27.8951 20.5783 26.4923 20.5783C25.0895 20.5783 23.7442 20.0211 22.7523 19.0292C21.7604 18.0373 21.2031 16.6919 21.2031 15.2892C21.2031 13.8864 21.7604 12.5411 22.7523 11.5492C23.7442 10.5572 25.0895 10 26.4923 10C27.8951 10 29.2404 10.5572 30.2323 11.5492C31.2242 12.5411 31.7815 13.8864 31.7815 15.2892ZM31.7815 84.7092C31.7815 86.1119 31.2242 87.4573 30.2323 88.4492C29.2404 89.4411 27.8951 89.9983 26.4923 89.9983C25.0895 89.9983 23.7442 89.4411 22.7523 88.4492C21.7604 87.4573 21.2031 86.1119 21.2031 84.7092C21.2031 83.3064 21.7604 81.9611 22.7523 80.9692C23.7442 79.9772 25.0895 79.42 26.4923 79.42C27.8951 79.42 29.2404 79.9772 30.2323 80.9692C31.2242 81.9611 31.7815 83.3064 31.7815 84.7092Z" fill="#01F3F3"/>
<path fill-rule="evenodd" clip-rule="evenodd" d="M89.5871 27.8589C89.5866 24.0153 88.0595 20.3293 85.3415 17.6116C82.6235 14.8939 78.9373 13.3672 75.0938 13.3672V16.5672C78.0889 16.5672 80.9614 17.757 83.0793 19.8749C85.1973 21.9928 86.3871 24.8653 86.3871 27.8605V71.8272C86.3866 74.8221 85.1966 77.6941 83.0788 79.8117C80.9609 81.9293 78.0886 83.1189 75.0938 83.1189V86.3188C78.9373 86.3188 82.6235 84.7921 85.3415 82.0744C88.0595 79.3568 89.5866 75.6708 89.5871 71.8272V27.8589Z" fill="#01F3F3"/>
<path d="M69.4625 15.2892C69.4625 16.6917 70.0197 18.0368 71.0114 19.0286C72.0032 20.0203 73.3483 20.5775 74.7508 20.5775C76.1534 20.5775 77.4985 20.0203 78.4902 19.0286C79.482 18.0368 80.0392 16.6917 80.0392 15.2892C80.0392 13.8864 79.4819 12.5411 78.49 11.5492C77.4981 10.5572 76.1528 10 74.75 10C73.3472 10 72.0019 10.5572 71.01 11.5492C70.0181 12.5411 69.4625 13.8864 69.4625 15.2892ZM69.4625 84.7092C69.4625 86.1117 70.0197 87.4568 71.0114 88.4486C72.0032 89.4403 73.3483 89.9975 74.7508 89.9975C76.1534 89.9975 77.4985 89.4403 78.4902 88.4486C79.482 87.4568 80.0392 86.1117 80.0392 84.7092C80.0392 83.3064 79.4819 81.9611 78.49 80.9692C77.4981 79.9773 76.1528 79.42 74.75 79.42C73.3472 79.42 72.0019 79.9773 71.01 80.9692C70.0181 81.9611 69.4625 83.3064 69.4625 84.7092ZM48.4492 31.0425L34.0625 67.5992H38.5675L42.4592 57.3592H59.2525L63.1442 67.5992H67.7008L53.3142 31.0425H48.4492ZM43.7908 53.8258L50.8042 35.5475H51.0092L57.9208 53.8258H43.7908Z" fill="#01F3F3"/>
<path fill-rule="evenodd" clip-rule="evenodd" d="M22.8734 34C23.7568 34 24.4734 34.7167 24.4734 35.6V64.4C24.4734 64.8243 24.3049 65.2313 24.0048 65.5314C23.7048 65.8314 23.2978 66 22.8734 66C22.4491 66 22.0421 65.8314 21.7421 65.5314C21.442 65.2313 21.2734 64.8243 21.2734 64.4V35.6C21.2734 34.7167 21.9901 34 22.8734 34ZM78.8734 34C79.7568 34 80.4734 34.7167 80.4734 35.6V64.4C80.4734 64.8243 80.3049 65.2313 80.0048 65.5314C79.7047 65.8314 79.2978 66 78.8734 66C78.4491 66 78.0421 65.8314 77.7421 65.5314C77.442 65.2313 77.2734 64.8243 77.2734 64.4V35.6C77.2734 34.7167 77.9901 34 78.8734 34Z" fill="#01F3F3"/>
</svg>
