<svg width="275" height="36" viewBox="0 0 275 36" fill="none" xmlns="http://www.w3.org/2000/svg">
<g clip-path="url(#clip0_17860_23766)">
<g clip-path="url(#clip1_17860_23766)">
<path fill-rule="evenodd" clip-rule="evenodd" d="M80.8117 23.2656H89.7033C91.2931 23.2656 92.5932 24.5657 92.5932 26.1555V32.2119C92.5932 33.8017 91.2931 35.1018 89.7033 35.1018H80.8117C79.222 35.1018 77.9219 33.8017 77.9219 32.2119V26.1555C77.9219 24.5657 79.222 23.2656 80.8117 23.2656ZM81.8029 25.3992C81.1239 25.3992 80.5704 25.9527 80.5704 26.6318V31.726C80.5704 32.405 81.1271 32.9585 81.8029 32.9585H88.7089C89.3879 32.9585 89.9415 32.405 89.9415 31.726V26.6318C89.9415 25.9527 89.3879 25.3992 88.7089 25.3992H81.8029Z" fill="#0D0C0C"/>
<path fill-rule="evenodd" clip-rule="evenodd" d="M64.7368 23.2649H74.906C74.3975 24.343 74.1819 24.7678 73.8472 25.4017H65.7312C65.0522 25.4017 64.4987 25.9553 64.4987 26.6343V31.7285C64.4987 32.4075 65.0554 32.9611 65.7312 32.9611H71.9582C72.6372 32.9611 73.1908 32.4043 73.1908 31.7285V30.1645H69.1456L68.0708 28.121H75.836V32.208C75.836 33.7978 74.5359 35.0979 72.9462 35.0979H64.7336C63.1439 35.0979 61.8438 33.7978 61.8438 32.208V26.1516C61.8438 24.5618 63.1439 23.2617 64.7336 23.2617L64.7368 23.2649Z" fill="#0D0C0C"/>
<path d="M49.8892 23.2656H47.5625V35.5008H49.8892V23.2656Z" fill="#0D0C0C"/>
<path d="M57.5335 23.2656H59.8634V35.5008H57.5335V30.545H52.1851L51.2969 28.2183H57.5335V23.2656Z" fill="#0D0C0C"/>
<path d="M36.7712 32.4056L37.5564 30.0757H41.5501C42.1712 30.0757 42.6957 29.8569 43.1302 29.4224C43.5711 28.9815 43.7931 28.4538 43.7931 27.8327C43.7931 27.2116 43.5743 26.6806 43.1302 26.2429C42.6957 25.8085 42.168 25.5897 41.5501 25.5897H35.1268V35.4982H32.7969V23.2598H41.5469C42.8116 23.2598 43.8864 23.7039 44.7811 24.5985C45.6725 25.4931 46.1198 26.568 46.1198 27.8327C46.1198 29.0974 45.6757 30.1722 44.7811 31.0669C43.8864 31.9615 42.8116 32.4056 41.5469 32.4056H36.768H36.7712Z" fill="#0D0C0C"/>
<path d="M14.3117 23.2656L13.7099 25.5955H4.10388C3.78529 25.5955 3.51819 25.7049 3.29614 25.9206C2.86491 26.3389 2.87779 27.536 3.27039 27.9866C3.47635 28.2215 3.74023 28.3792 4.04917 28.3792L11.6664 28.3438C12.5997 28.3373 13.3688 28.8201 13.9866 29.528C14.6013 30.2328 14.8877 31.0534 14.8459 31.977C14.804 32.9103 14.4436 33.8821 13.7646 34.5354C13.092 35.1822 12.2907 35.5073 11.3575 35.5073H1.2623L1.94132 33.1774H11.3607C11.6728 33.1774 11.9399 33.0679 12.1684 32.8523C12.3937 32.6367 12.516 32.1894 12.5289 31.8805C12.5417 31.5683 12.4484 31.2916 12.2457 31.0566C12.0429 30.8217 11.7823 30.664 11.4733 30.664L3.85609 30.6994C2.91962 30.7026 2.1505 30.2231 1.53584 29.5152C0.921184 28.8104 0.631555 27.9898 0.666954 27.0662C0.705571 26.1329 1.01129 24.8908 1.69031 24.2407C2.36611 23.5907 3.17385 23.2688 4.10388 23.2688H14.3085L14.3117 23.2656Z" fill="#0D0C0C"/>
<path fill-rule="evenodd" clip-rule="evenodd" d="M19.3273 23.2656H28.2189C29.8087 23.2656 31.1088 24.5657 31.1088 26.1555V32.2119C31.1088 33.8017 29.8087 35.1018 28.2189 35.1018H19.3273C17.7376 35.1018 16.4375 33.8017 16.4375 32.2119V26.1555C16.4375 24.5657 17.7376 23.2656 19.3273 23.2656ZM20.3217 25.3992C19.6427 25.3992 19.0892 25.9527 19.0892 26.6318V31.726C19.0892 32.405 19.6459 32.9585 20.3217 32.9585H27.2278C27.9068 32.9585 28.4603 32.405 28.4603 31.726V26.6318C28.4603 25.9527 27.9068 25.3992 27.2278 25.3992H20.3217Z" fill="#0D0C0C"/>
<path d="M52.7835 11.8272C53.1053 9.18837 53.1954 7.13522 53.1954 7.13522C53.218 7.02581 53.3049 6.99685 53.4529 7.03868C53.5205 7.05799 53.5881 7.06121 53.6588 7.03224C53.7329 7.00328 53.8133 6.98075 53.8938 6.95823C54.1287 6.89387 54.3636 6.82629 54.605 6.76836C54.753 6.73296 55.4867 6.59137 55.5511 6.58493C55.6219 6.57849 56.893 6.26634 57.926 6.26956C58.5343 6.26956 59.3871 6.48839 59.4353 6.55597C59.5351 6.60102 59.6381 6.64607 59.7346 6.69434C59.8183 6.7394 59.8955 6.79089 59.976 6.83594C60.0339 6.87134 60.095 6.9003 60.1497 6.93892C60.1691 6.95179 60.1755 6.9711 60.1884 6.98719C60.227 7.03224 60.3203 10.1635 60.3879 10.7234L60.5359 15.3381C60.9832 18.6206 60.729 18.8813 60.5584 18.9424C59.1489 18.9907 58.3412 12.7701 58.3412 12.7701C58.3347 12.7347 58.2865 12.7025 58.2607 12.6671C58.2382 12.6382 58.2189 12.6092 58.1899 12.5674C58.1771 12.5674 58.1384 12.5738 58.1095 12.5899C58.0226 12.6285 56.6195 13.0501 56.3524 13.0726C56.3234 13.0694 54.5889 13.3107 54.5181 13.211C54.4859 13.1659 54.3926 13.1563 54.325 13.1338C54.296 13.1241 54.2542 13.1273 54.2091 13.1209C54.2317 13.211 54.2381 13.2786 54.177 13.3526C54.177 13.3526 53.0989 15.5538 52.5583 16.0815C52.5132 16.1523 51.4866 17.2079 51.4448 17.2368C51.403 17.269 49.8551 18.4468 49.7778 18.4919C49.7521 18.5048 49.7263 18.5176 49.7038 18.5337C49.6266 18.5949 48.0079 19.3769 47.9757 19.3962C47.9467 19.4155 47.9113 19.4283 47.8791 19.4412C47.8727 19.4412 47.8502 19.4509 47.8438 19.4509C47.8534 19.4348 47.8727 19.4058 47.8888 19.3962C47.9499 19.3511 48.9315 18.3664 48.9733 18.3245C48.9894 18.3084 48.9958 18.2924 49.0087 18.2763C49.028 18.2537 49.0473 18.2344 49.0698 18.2119C49.0892 18.1926 49.1052 18.1733 49.1246 18.1572C49.1728 18.1121 49.3723 17.9255 49.4142 17.8708C49.4914 17.7646 49.81 17.3655 49.8615 17.2947C49.9259 17.2046 50.4633 16.5514 50.5437 16.442C50.5759 16.3969 50.6113 16.3518 50.6338 16.3068C50.695 16.1877 51.6668 14.7685 51.7055 14.6559C51.7473 14.5336 51.9758 14.1217 52.0015 14.0445C52.0305 13.9544 52.1463 13.6808 52.1721 13.6326C52.1721 13.6326 52.7417 12.1941 52.7867 11.8272H52.7835ZM58.2639 9.08861C58.2639 9.04034 58.2575 8.98563 58.2543 8.9277C58.2479 8.78932 58.2479 7.79493 58.2543 7.69195C58.2575 7.62116 58.0902 7.4506 58.0612 7.41842C57.9904 7.33475 57.8746 7.28969 57.749 7.26073C57.5688 7.21568 57.379 7.22533 57.1955 7.25107C57.0443 7.2736 55.2132 7.74988 55.0941 7.79171C55.0362 7.81424 54.9976 7.85608 54.9364 7.89469C55.0394 7.91722 55.0491 7.95262 55.0555 8.00089C55.0619 8.05882 55.0973 8.54475 55.136 8.70887C55.1617 8.81507 55.1585 8.9277 55.1746 9.03712C55.1842 9.09183 55.2003 9.5681 55.1842 9.67108C55.1842 9.68395 55.2068 9.71292 55.2228 9.71292C55.2615 9.71292 55.2711 9.74188 55.3612 9.72579C55.5865 9.69039 55.9791 9.58419 56.0756 9.55523C56.2205 9.5134 56.3749 9.48443 56.5262 9.44903C56.6871 9.41042 56.8512 9.3718 57.0089 9.32675C57.1601 9.28813 57.9743 9.16262 58.0355 9.14975C58.1063 9.13366 58.1738 9.10792 58.2607 9.08217L58.2639 9.08861ZM57.4369 11.2222C57.5013 11.2093 57.9647 11.1965 58.132 11.1965C58.2382 11.1965 58.3058 11.1514 58.2832 11.0903C58.2318 10.9615 58.2704 10.2085 58.1899 10.1441C58.1191 10.0862 57.9711 10.1055 57.9196 10.1216C57.8681 10.1377 57.8198 10.1538 57.7684 10.1699C57.6879 10.1924 57.202 10.2922 57.1923 10.2986C57.1086 10.3276 55.8246 10.6912 55.683 10.7298C55.5157 10.7781 55.358 10.8425 55.1971 10.9004C55.1327 10.9229 55.0748 10.9551 55.0137 10.9808C54.9332 11.0162 54.8914 11.2061 54.8817 11.2415C54.8592 11.3606 54.724 11.7242 54.7079 11.7886C54.8689 11.7628 55.3323 11.6953 55.3837 11.6824C55.5125 11.6566 57.3146 11.2447 57.4401 11.2222H57.4369Z" fill="#0D0C0C"/>
<path d="M50.7985 6.32746C50.7341 6.3693 50.364 6.59778 50.0004 6.5656C49.9199 6.55595 48.2433 6.23092 48.1821 6.21805C47.133 5.99922 47.8603 5.45214 47.8925 5.42318C48.1757 5.15608 50.8113 4.2711 50.9079 4.19065C50.9722 4.13594 51.1878 4.04262 51.22 4.02009C51.2586 3.99434 51.8701 3.67575 52.002 3.56956C52.0406 3.54059 52.6489 3.10937 52.7969 3.03857C52.8291 3.02248 53.7688 2.34346 53.8428 2.2791C53.846 2.27588 54.2579 1.88006 54.2837 1.8157C54.3094 1.74812 54.5475 1.51641 54.5668 1.45205C54.5926 1.36516 54.5733 1.27184 54.5765 1.18173C54.5765 1.10128 54.5829 1.02083 54.5926 0.940373C54.599 0.879229 54.6344 0.818086 54.6216 0.763378C54.6087 0.715107 54.7535 0.64109 54.7889 0.625C54.805 0.625 54.8243 0.625 54.8404 0.625C54.8533 0.631436 54.8661 0.644309 54.879 0.644309C54.879 0.644309 56.4012 1.19138 56.5717 2.47219C56.665 2.53977 56.7037 2.64275 56.8903 2.64596C56.9579 2.64596 57.0223 2.70067 57.0866 2.72963C57.0866 2.72963 60.5461 3.8978 61.2669 4.82461C61.2959 4.84392 62.5831 6.07645 60.4592 6.24379C60.4495 6.24379 60.2983 6.23092 60.2436 6.20839C58.9531 5.29767 58.1872 5.2848 58.1711 5.27515C58.1711 5.27515 53.7527 5.27515 50.7952 6.32746H50.7985ZM56.4269 4.11341C56.4526 4.11985 56.4848 4.11341 56.5138 4.11341L56.5331 4.10054C56.5074 4.07802 56.488 4.05549 56.4591 4.03618C56.3722 3.90102 55.6192 3.40865 55.6192 3.40865C55.5773 3.4344 55.1493 3.61783 55.0174 3.7369C54.9659 3.78195 54.3705 4.11985 54.2804 4.18099C54.2611 4.19387 54.2579 4.21318 54.2483 4.22927C54.2708 4.23248 54.2965 4.24214 54.3191 4.24214C54.4413 4.24214 54.5636 4.24214 54.6891 4.23892C55.4132 4.22283 56.4301 4.11663 56.4301 4.11663L56.4269 4.11341Z" fill="#0D0C0C"/>
<path d="M93.2613 12.0582C93.2678 12.1644 92.4954 12.38 91.5493 12.837C90.1591 13.5095 89.2387 14.6681 86.6771 15.3793C85.6473 15.6657 85.6023 15.936 85.0552 16.039C83.9514 16.2481 82.9698 16.084 82.9698 16.084C78.6447 15.2763 76.7493 14.8772 76.7493 14.8772C74.3421 14.2207 70.0846 14.5876 69.9945 14.6069C69.9012 14.6262 69.5987 14.7131 69.544 14.7389C69.4796 14.7678 69.4185 14.7968 69.3573 14.829C69.3316 14.8418 69.2929 14.8644 69.2962 14.8805C69.2962 14.8805 69.3991 15.5402 68.8617 15.685C68.7813 15.7075 68.7523 15.7204 68.6493 15.7172C68.556 15.6818 68.4112 15.7043 68.3082 15.5917C67.6453 15.1443 67.552 14.1564 67.552 14.1564L67.4168 11.9842C67.2849 10.5682 66.9984 10.2432 66.9534 10.1338C66.9244 10.0662 66.6251 9.41613 66.6026 9.36464C66.593 9.3389 66.3677 8.94951 66.8279 8.95916C66.9083 8.95916 66.9856 8.9656 67.066 8.97203C67.1079 8.97525 67.3331 9.03318 67.4071 9.04927C67.5938 9.09432 67.7804 9.13294 67.9607 9.18443C68.3597 9.26488 68.6075 9.56738 68.6139 9.58669C68.6397 9.66392 68.8553 9.96321 68.8875 10.0469C68.9196 10.1273 68.955 10.211 69.0001 10.2882C69.0194 10.3236 69.0484 10.3494 69.1353 10.3429C69.4152 10.3333 73.1096 9.82805 74.1297 10.1209C74.1716 10.1241 75.2657 10.2367 75.5039 10.4556C75.5747 10.4845 75.6326 10.5264 75.6905 10.5682C75.7903 10.6326 75.8772 10.7066 75.9866 10.7645C76.1217 10.8385 76.199 11.6527 75.034 11.4693C74.9697 11.4532 74.9053 11.4339 74.8377 11.421C72.4274 11.199 69.5954 11.7042 69.5954 11.7042C69.5633 11.7042 69.5311 11.6978 69.4796 11.6945C69.4796 11.6945 69.1417 12.4701 69.6308 13.4291C69.6276 13.4709 69.6469 13.5128 69.6534 13.5578C71.1755 13.133 75.6004 13.0494 76.6206 13.1716C77.6407 13.2939 82.0656 13.8668 86.9538 13.4548C86.9732 13.4548 88.5758 13.4033 90.0529 13.0815C91.5429 12.7565 92.9138 12.1612 93.2677 12.055L93.2613 12.0582Z" fill="#0D0C0C"/>
<path d="M67.0115 4.91128L67.1209 8.14869C67.2013 8.30316 67.4716 8.44797 67.5714 8.50911C67.6132 8.53486 68.0284 8.58957 68.0348 8.58957C68.5079 8.59278 68.5948 8.35143 68.6173 8.32246C68.6623 8.26776 68.701 8.21305 68.7492 8.15834C68.7814 8.12294 68.8136 8.07467 68.8651 8.0618C68.8651 8.0618 73.9593 6.93547 75.3013 7.40531C75.3946 7.4214 75.9063 7.62092 76.2088 7.41496C76.2249 7.40531 76.4469 7.2444 76.5209 7.16073C76.5209 7.16073 77.1935 6.4785 74.8507 6.3369C74.751 6.33046 74.648 6.32403 74.5482 6.32081C74.5257 6.32081 74.5 6.32081 74.4774 6.31115C74.3777 6.27897 73.9625 6.33046 73.866 6.3369C73.6826 6.35299 73.4991 6.36908 73.3157 6.38839C73.2159 6.39804 73.1162 6.40448 73.0164 6.41735C72.9295 6.42701 72.8459 6.4431 72.759 6.44632C72.6624 6.45275 72.2795 6.48171 72.1797 6.49137C72.0413 6.50746 71.1178 6.59757 71.0116 6.60722C70.7959 6.62975 70.5803 6.65227 70.3647 6.67802C70.3197 6.68445 70.2778 6.70376 70.2296 6.7102C70.0847 6.72951 69.9399 6.74238 69.7951 6.75847C69.6503 6.77456 69.5055 6.79387 69.3607 6.80031C69.1708 6.81318 68.9809 6.8164 68.7814 6.82283C68.8104 6.65227 68.9777 5.85097 69.0614 5.8027C69.0517 5.77695 69.0421 5.75442 69.0389 5.7319C69.0389 5.72546 69.8434 5.51629 69.9785 5.5002C70.0719 5.49054 70.4967 5.44549 71.7614 5.17517C73.7823 4.57338 74.5257 4.81796 74.6255 4.79543C75.4654 4.59269 75.5652 4.26766 75.5877 4.12929C75.7808 3.67875 73.3769 3.3666 73.3769 3.3666C72.8427 3.27327 71.3816 3.68841 71.2561 3.72381C71.1596 3.74955 69.9142 3.98125 69.7919 4.01022C69.6857 4.03596 69.2159 4.12607 69.0904 4.15181C69.0067 4.1679 68.7042 4.20652 68.6463 4.2033C68.6109 4.19687 68.5722 4.19687 68.5626 4.18721C68.5207 4.12607 68.4821 4.06171 68.4564 3.99413C68.4371 3.94264 68.2762 3.48567 68.2569 3.46314C68.2376 3.4374 68.1635 3.32798 68.1346 3.30224C68.0702 3.24109 67.9994 3.18317 67.9254 3.12846C67.8739 3.08984 67.5875 2.91607 67.507 2.86458C67.4234 2.80987 67.2174 2.62322 66.5094 2.46875C66.0814 2.49771 66.0235 2.58782 66.0139 2.60069C65.9881 2.63931 65.9495 2.67471 65.9334 2.71654C65.9141 2.75838 65.898 2.80665 65.9109 2.84527C65.9398 2.92572 65.9849 3.00617 66.0299 3.08662C66.0299 3.08662 67.0243 3.94264 67.0179 4.9145L67.0115 4.91128Z" fill="#0D0C0C"/>
<path fill-rule="evenodd" clip-rule="evenodd" d="M37.3023 14.9301C36.25 15.2776 35.2331 14.9236 33.5822 14.7627C32.3593 14.6437 32.9868 14.4956 29.4148 14.4087C25.8427 14.3444 26.5153 14.1706 24.7067 14.2511C24.7067 14.2511 24.5329 14.1996 24.5072 14.3283C24.4814 14.4795 24.327 14.8915 24.3688 15.2133C24.4492 15.5576 24.4332 15.8891 24.4492 16.2044C24.5007 16.5423 24.4364 17.1473 24.3688 17.379C24.3366 17.6333 24.3913 17.7137 24.3495 18.0838C24.343 18.4764 24.4235 18.795 24.0116 18.7628C23.6351 18.75 23.442 18.8851 23.1363 18.19C22.8273 17.5174 22.5602 15.9052 22.4412 15.3613C22.3575 14.8142 22.5988 14.5278 22.4765 14.2768C22.3864 14.0483 22.985 14.2157 20.3365 14.1899C20.3365 14.1899 17.2246 14.3959 16.1047 14.3733C16.1047 14.3733 16.0114 14.3959 15.9631 14.6211C15.9149 14.8689 15.8666 15.5801 15.2069 16.4844C15.2069 16.4844 14.3219 17.6333 13.5592 18.1128C13.5592 18.1128 13.1473 18.7725 10.6758 19.2455C10.6758 19.2455 10.1641 19.4354 10.103 19.3775C10.0772 19.3421 9.76186 19.4161 9.84553 19.1039C9.9646 18.8143 9.87449 18.8594 10.0418 18.6985C10.2124 18.5601 10.399 18.3927 10.5599 18.2286C10.7595 18.0902 11.7378 17.5979 11.9309 17.4337C12.1239 17.2954 13.0057 16.8255 13.0668 16.5745C13.1634 16.346 13.6397 15.8665 13.6397 14.5922C13.6397 14.5922 13.585 14.5246 13.2438 14.5664C12.9413 14.6083 11.7249 14.7112 11.0169 14.7241C10.0933 14.7692 9.49476 14.8271 8.63231 14.8818C7.80526 14.9558 6.95568 15.0781 6.28632 15.2841C5.61695 15.49 5.14389 15.5769 4.32006 16.0789C4.32006 16.0789 3.11971 16.7869 1.97729 16.7193C0.870262 16.6743 0.580633 16.4973 0.0078125 15.8858C0.0078125 15.8858 1.07622 15.8054 2.6724 15.194C4.30397 14.6083 6.86879 14.0773 9.25018 13.8778C11.6316 13.7008 13.5914 13.675 13.585 13.5913C13.6139 13.5302 13.4337 13.379 13.4241 13.2631C13.4144 13.1472 13.2696 13.041 13.4659 13.0024C13.7008 12.9896 13.9969 12.9735 14.161 13.0282C14.3251 13.0829 15.3742 13.0636 15.8537 13.498C15.8537 13.498 21.4307 13.2921 22.351 13.2084C22.351 13.2084 22.4218 13.144 22.5119 13.0282C22.6375 12.9349 22.6535 12.9059 22.8112 12.8962C23.0011 12.9091 23.3358 12.8705 23.4259 12.8962C23.516 12.9445 24.1146 13.0636 24.1403 13.1826C24.1403 13.1826 27.957 13.1151 29.6078 13.1054C31.2941 13.1215 33.0512 13.1987 37.4182 12.7289C37.4182 12.7289 39.732 12.5487 40.559 12.2591C41.2702 12.0177 41.9203 11.7602 42.2003 11.7248C42.2936 11.8439 42.4609 11.8278 42.2485 12.5294C41.8366 13.0604 40.4657 13.3436 39.8446 13.6879C39.0594 14.1223 39.3233 14.2671 37.3152 14.9301H37.3023ZM28.4397 3.72145C28.4397 3.83086 28.3077 4.59999 28.1629 4.64826C28.0535 4.71906 27.9055 4.70619 27.8057 4.64826C27.7414 4.61286 27.2329 4.52597 27.0656 4.45196C26.8982 4.37794 26.9787 4.23634 26.9304 4.11406C26.9207 3.98855 26.9014 3.69892 26.8886 3.48975C26.8757 3.28057 26.9111 2.79785 26.6729 2.56293C26.467 2.32801 26.689 2.46639 26.4509 2.43099C26.2128 2.39559 25.3567 2.3087 25.1218 2.31514C24.9223 2.34732 24.9416 2.26687 24.8998 2.36663C24.8579 2.46639 24.8032 2.56293 24.7839 2.64017C24.8 2.7174 24.7324 3.30631 24.6037 3.64421C24.475 3.98211 24.2015 4.98616 24.1274 5.09236C24.0534 5.19855 23.9215 5.42704 23.87 5.39164C23.8185 5.35624 23.8378 5.35302 23.693 4.97329C23.5836 4.59355 23.5482 4.4423 23.5128 4.30714C23.4774 4.17198 23.1974 3.58951 23.1137 3.3031C23.0301 3.01669 23.1652 2.69809 22.956 2.61764C22.7823 2.53719 22.8659 2.5565 22.5795 2.61121C22.3317 2.66591 20.8611 2.74315 20.7098 2.83325C20.5972 2.92336 20.8546 3.76972 20.8482 3.90488C20.8418 4.06257 20.7227 4.70619 20.2947 4.69975C19.9021 4.71584 19.9053 4.72228 19.5996 4.39725C19.3293 4.07544 19.252 4.16233 19.104 3.61525C18.9881 3.06818 19.0589 3.14219 19.0042 2.83325C18.9173 2.36341 19.0686 1.71014 19.1008 1.63612C19.1329 1.56211 19.3904 1.56532 19.4451 1.56854C19.4451 1.56854 19.9471 1.62003 20.0598 1.7391C20.1724 1.85817 20.3977 1.99977 20.3977 1.99977C20.3977 1.99977 22.6085 1.85817 22.6439 1.81634C22.6793 1.7745 22.7083 1.80346 22.6825 1.65865C22.6568 1.51383 22.5538 1.295 22.6053 1.17594C22.6922 1.05687 22.7887 0.471172 22.9239 0.496917C23.0944 0.522662 23.2843 0.59346 23.4195 0.628859C23.5546 0.664258 23.9794 0.757583 24.0373 0.799418C24.1306 0.86378 24.475 1.12123 24.475 1.16306C24.5104 1.2049 24.5812 1.36902 24.5908 1.39798C24.6005 1.42695 24.6552 1.58142 24.6906 1.59429C24.7646 1.6329 24.8419 1.67474 24.9062 1.68439C24.9706 1.69405 25.7333 1.57498 26.438 1.6329C27.1428 1.69083 26.9722 1.68118 27.2522 1.71014C27.5322 1.7391 28.4236 2.09309 28.5073 2.28296C28.6231 2.47283 28.7486 2.48892 28.6456 2.81716C28.5427 3.14541 28.4847 3.63456 28.4493 3.71823L28.4397 3.72145ZM22.5377 5.97733C23.0783 6.04491 24.0759 6.32167 24.446 6.53728C24.8515 6.75289 24.8097 6.82047 24.9416 6.92989C25.0736 7.0393 25.1508 7.22273 25.1218 7.33537C25.1283 7.448 25.0929 7.51558 24.9802 7.5188C24.8676 7.54776 24.8386 7.55098 24.7839 7.64752C24.7646 7.74407 24.6713 7.83096 24.6423 8.01117C24.6134 8.19138 24.5297 9.11176 24.4074 9.71998C24.3173 10.3282 24.4621 11.0265 24.446 11.4674C24.4653 11.9051 24.6391 11.7763 24.623 11.9115C24.6069 12.0692 24.7936 12.3395 24.1274 12.3942C24.1274 12.3942 24.0792 12.4554 23.2553 12.185C23.2553 12.185 22.4959 11.9952 20.9512 12.0177C19.4419 12.0627 18.9463 12.1883 17.9487 12.2912C16.9897 12.3942 15.416 12.5841 14.6695 12.7096C14.6695 12.7096 14.0998 12.9349 13.733 12.8254C13.3661 12.7418 13.1956 12.7514 12.9381 12.1883C12.6807 11.6476 12.5133 10.8077 12.5198 10.1673C12.5294 9.54942 12.5552 8.32976 12.4618 7.80843C12.4039 7.2871 12.4007 6.99425 12.4425 6.75289C12.5198 6.51154 12.4586 6.47935 12.4811 6.40212C12.5423 6.34741 12.9027 5.99664 13.0572 6.00951C13.1698 6.03526 13.6493 6.11249 13.7909 6.15433C13.9325 6.21869 14.161 6.4697 14.2704 6.55337C14.4152 6.64026 14.1932 6.6821 14.4667 6.69819C14.7403 6.71428 14.7113 6.71428 14.9269 6.67244C15.1747 6.63061 17.8328 6.17685 18.9592 6.08675C20.0855 6.02239 22.0325 5.93872 22.5377 5.98377V5.97733ZM14.2897 11.9083C14.2897 11.9083 16.1948 11.6058 16.9736 11.5414C17.7878 11.4771 19.4258 11.2647 20.5103 11.3065C21.5948 11.3483 22.0389 11.3612 22.4218 11.3869C22.8402 11.4352 23.0816 11.4706 23.1169 11.4384C23.1491 11.432 23.1491 11.3998 23.1556 11.3612C23.162 11.3451 23.1266 10.6564 23.0558 10.5921C23.0558 10.5921 23.191 10.5342 22.38 10.4891C21.569 10.4666 21.6398 10.2317 17.4499 10.5663C17.4499 10.5663 15.1071 10.9943 14.0902 11.2196C14.0902 11.2196 14.3219 11.5833 14.2897 11.9115V11.9083ZM14.0484 10.4215C14.0677 10.5084 14.19 10.4601 14.19 10.4601C16.7194 10.016 19.001 9.72319 20.1112 9.69101C21.2215 9.65883 21.5916 9.71354 22.1 9.76825C22.6439 9.82296 23.0108 9.76825 23.0108 9.76825C23.0108 9.76825 23.0268 9.72963 23.0301 9.6878C23.0333 9.64596 22.9721 8.72237 22.9721 8.72237C22.9078 8.62261 22.2448 8.60008 21.6173 8.59364C20.9898 8.61295 20.9351 8.61295 19.8699 8.61939C18.8401 8.62582 17.8039 8.73202 17.2665 8.77707C16.7644 8.82213 16.7001 8.91867 15.8344 8.97338C15.0074 9.02809 14.1835 9.15681 14.1835 9.15681C14.0451 9.42069 14.0258 10.3604 14.0419 10.4215H14.0484ZM19.7927 6.95563C19.4805 6.96529 19.0364 7.01034 18.6567 7.05861C18.2769 7.10688 17.1506 7.25492 16.0565 7.34502C14.9945 7.43513 15.0106 7.61212 14.7628 7.64752C14.515 7.70545 14.3927 7.78912 14.2865 7.82774C14.2189 7.86635 14.1224 7.87923 14.1642 7.90819C14.206 7.95968 14.1449 8.54537 14.1449 8.54537C14.2736 8.54859 14.7596 8.44239 14.7596 8.44239C15.873 8.44239 17.2665 8.05622 19.7283 7.93393C22.1901 7.83417 22.2931 7.93393 22.2931 7.93393C23.2264 8.13346 22.9657 7.92428 22.8917 7.67327C22.8531 7.448 22.7083 7.22595 22.6696 7.16481C22.631 7.12941 22.3704 7.08436 21.9134 7.00712C21.4564 6.92989 20.137 6.96851 19.7894 6.95563H19.7927ZM12.3782 1.8453C12.5584 1.85173 13.7491 1.67474 14.2672 1.64899C14.8207 1.62325 15.3903 1.47844 15.6381 1.52027C15.947 1.56532 16.0436 1.54602 16.1562 1.59751C16.3042 1.649 16.803 1.84852 16.9511 1.99011C17.1377 2.13171 17.2182 2.20251 17.2697 2.2894C17.3566 2.37628 17.4177 2.51144 17.4081 2.61442C17.3984 2.7174 17.1667 3.04887 17.1506 3.13575C17.1345 3.24839 16.9575 3.72467 16.8932 4.0336C16.7677 5.4206 16.198 5.33693 16.198 5.33693C16.198 5.33693 15.9503 5.40129 15.7797 4.86709C15.5673 4.47126 15.6799 3.42538 15.6606 3.11001C15.6767 2.81716 15.6638 2.58868 15.519 2.44386C15.3742 2.29905 15.3742 2.33767 15.1618 2.34089C14.9494 2.3441 14.4989 2.32158 14.2897 2.31514C14.1159 2.33445 13.7813 2.32158 13.7523 2.41812C13.7233 2.51466 13.8617 3.22586 13.9743 3.79868C13.9583 3.93384 13.9743 4.12693 13.9357 4.24278C13.9325 4.35863 14.0065 4.53241 13.5978 4.80595C13.2245 5.10201 12.6614 4.39403 12.6227 4.25565C12.5841 4.11727 12.4811 3.6957 12.6034 3.08105C12.6034 3.08105 12.745 2.66269 12.6646 2.57259C12.6227 2.48248 12.6517 2.41812 12.4651 2.48248C12.3138 2.54363 11.1135 2.90083 10.9558 2.93945C10.8335 2.97485 10.8657 2.98772 10.8367 3.08427C10.8431 3.20333 10.8914 3.73432 10.8174 3.85339C10.7788 3.96924 10.7337 4.46483 10.5793 4.7802C10.4859 5.04087 10.4023 5.22108 10.0611 5.23717C9.7168 5.25004 9.72646 5.27901 9.52372 5.23717C9.34672 5.20177 9.14077 5.01512 9.04744 4.8864C9.04744 4.8864 8.63231 4.52275 8.69023 3.6603C8.78356 2.80107 8.80287 2.49214 9.34672 1.78416C9.34672 1.78416 9.70393 1.38511 10.1223 1.40764C10.576 1.42695 10.6114 1.5428 10.7981 1.64256C10.7981 1.64256 10.811 1.69405 10.8174 1.75841C10.8624 1.82599 10.827 1.84852 10.8978 1.86139C11.0008 1.87426 10.9783 1.87748 11.0555 1.88713C11.0555 1.88713 12.0467 1.90001 12.3878 1.84852L12.3782 1.8453Z" fill="#0D0C0C"/>
</g>
</g>
<path d="M135 12L123 24" stroke="black" stroke-width="2" stroke-linecap="round" stroke-linejoin="round"/>
<path d="M123 12L135 24" stroke="black" stroke-width="2" stroke-linecap="round" stroke-linejoin="round"/>
<path d="M156.747 35.5H153V19.192C153 14.9553 156.443 11.52 160.69 11.52H166.934C168.604 11.52 169.958 12.8712 169.958 14.537V17.7499H160.69C159.892 17.7499 159.245 18.3953 159.245 19.192V33.0078C159.245 34.3841 158.126 35.5 156.747 35.5Z" fill="#74BC1F"/>
<path d="M213.357 35.5H205.839C201.591 35.5 198.148 32.0654 198.148 27.8287V19.192C198.148 14.9553 201.591 11.52 205.839 11.52H209.248C210.918 11.52 212.273 12.8712 212.273 14.537V17.7499H205.839C205.041 17.7499 204.394 18.3953 204.394 19.192V27.8287C204.394 28.6246 205.041 29.2701 205.839 29.2701H213.357C214.155 29.2701 214.802 28.6246 214.802 27.8287V0.500153H218.024C219.694 0.500153 221.047 1.85068 221.047 3.51715V27.8287C221.047 32.0654 217.604 35.5 213.357 35.5Z" fill="#74BC1F"/>
<path d="M231.033 12.2583C231.964 13.4305 235.96 18.4692 236.808 19.5371L232.963 23.373C230.666 21.5595 225.982 17.8625 223.661 16.0299C223.634 16.0089 223.634 15.9736 223.659 15.9492L227.761 11.8569C228.639 10.981 230.087 11.0651 230.857 12.0366L231.033 12.2583Z" fill="#74BC1F"/>
<path d="M225.676 29.1336C226.851 28.2055 231.902 24.219 232.973 23.3736L236.818 27.2089C235.39 29.0082 232.799 32.2754 230.862 34.7175C230.093 35.6863 228.651 35.7676 227.776 34.8937L223.625 30.7533L225.676 29.1336Z" fill="#74BC1F"/>
<path d="M242.587 34.4882C241.656 33.316 237.659 28.2773 236.812 27.2095L240.657 23.3735C242.954 25.1871 247.638 28.8841 249.959 30.7166C249.986 30.7377 249.986 30.7729 249.961 30.7973L245.859 34.8896C244.981 35.7655 243.533 35.6815 242.763 34.7099L242.587 34.4882Z" fill="#74BC1F"/>
<path d="M247.954 17.613C246.779 18.5411 241.728 22.5276 240.658 23.373L236.812 19.5377C238.23 17.7513 240.794 14.518 242.727 12.0827C243.544 11.0522 244.972 10.9722 245.904 11.901L250.006 15.9933L247.954 17.613Z" fill="#74BC1F"/>
<path d="M266.842 11.52H256.111C254.44 11.52 253.087 12.8705 253.087 14.537V17.7499H266.842C267.64 17.7499 268.287 18.3953 268.287 19.192V27.828C268.287 28.624 267.64 29.2701 266.842 29.2701H259.612C258.655 29.2701 257.878 28.4952 257.878 27.5399C257.878 26.5846 258.655 25.8104 259.612 25.8104H265.757V23.468C265.757 22.2212 264.743 21.2096 263.493 21.2096H258.795C254.839 21.2096 251.633 24.4083 251.633 28.3541C251.633 32.2993 254.839 35.498 258.793 35.4986L266.842 35.5C271.089 35.5 274.532 32.0647 274.532 27.828V19.192C274.532 14.9546 271.089 11.52 266.842 11.52Z" fill="#74BC1F"/>
<path d="M186.623 11.52H175.892C174.222 11.52 172.868 12.8705 172.868 14.537V17.7499H186.623C187.421 17.7499 188.068 18.3953 188.068 19.192V27.828C188.068 28.624 187.421 29.2701 186.623 29.2701H179.394C178.436 29.2701 177.659 28.4952 177.659 27.5399C177.659 26.5846 178.436 25.8104 179.394 25.8104H185.538V23.468C185.538 22.2212 184.524 21.2096 183.274 21.2096H178.576C174.621 21.2096 171.414 24.4083 171.414 28.3541C171.414 32.2993 174.62 35.498 178.575 35.4986L186.623 35.5C190.871 35.5 194.314 32.0647 194.314 27.828V19.192C194.314 14.9546 190.871 11.52 186.623 11.52Z" fill="#74BC1F"/>
<defs>
<clipPath id="clip0_17860_23766">
<rect width="105" height="35" fill="white" transform="translate(0 0.5)"/>
</clipPath>
<clipPath id="clip1_17860_23766">
<rect width="93.254" height="35" fill="white" transform="translate(0 0.5)"/>
</clipPath>
</defs>
</svg>
